<?xml version="1.0" encoding="UTF-8"?>
<svg id="Layer_2" data-name="Layer 2" xmlns="http://www.w3.org/2000/svg" viewBox="0 0 247.67 155.51">
  <defs>
    <style>
      .cls-1 {
        fill: #dee8ff;
        stroke: #4a5366;
        stroke-linecap: round;
        stroke-miterlimit: 10;
        stroke-width: 6px;
      }
    </style>
  </defs>
  <g id="Icons">
    <g>
      <g>
        <path class="cls-1" d="M40.41,108.77h123.01c71.64-3.5,41.8-106.65-27.22-65.81,5.36-53.76-76.66-51.59-72.36-3.58C-1.35,8.11-21.7,108.77,40.41,108.77Z"/>
        <path class="cls-1" d="M72.44,55.75c-5.73-7.97-8.6-16.38-8.6-16.38"/>
        <path class="cls-1" d="M124.02,55.94c2.3-3.8,12.18-12.98,12.18-12.98"/>
        <path class="cls-1" d="M169.59,47.56c8.16,2.55,18.19,9.71,19.62,19.03"/>
        <path class="cls-1" d="M103.84,12.85c10.87,2.87,13.9,2.97,20.19,11.63"/>
        <path class="cls-1" d="M45.93,42.96c-12.9.71-25.43,6.49-32.24,23.63"/>
      </g>
      <g>
        <path class="cls-1" d="M80.41,152.51h123.01c71.64-3.5,41.8-106.65-27.22-65.81,5.36-53.76-76.66-51.59-72.36-3.58-65.19-31.26-85.54,69.4-23.43,69.4Z"/>
        <path class="cls-1" d="M112.43,99.49c-5.73-7.97-8.6-16.38-8.6-16.38"/>
        <path class="cls-1" d="M164.02,99.68c2.3-3.8,12.18-12.98,12.18-12.98"/>
        <path class="cls-1" d="M209.59,91.3c8.16,2.55,18.19,9.71,19.62,19.03"/>
        <path class="cls-1" d="M143.83,56.6c10.87,2.87,13.9,2.97,20.19,11.63"/>
        <path class="cls-1" d="M85.93,86.7c-12.9.71-25.43,6.49-32.24,23.63"/>
      </g>
    </g>
  </g>
</svg>