<?xml version="1.0" encoding="UTF-8"?>
<svg id="Layer_2" data-name="Layer 2" xmlns="http://www.w3.org/2000/svg" viewBox="0 0 208.03 197.28">
  <defs>
    <style>
      .cls-1 {
        fill: #dee8ff;
        stroke: #4a5366;
        stroke-linecap: round;
        stroke-miterlimit: 10;
        stroke-width: 6px;
      }

      .cls-2 {
        fill: #fff;
      }

      .cls-2, .cls-3 {
        stroke-width: 0px;
      }

      .cls-3 {
        fill: #e8dc00;
      }
    </style>
  </defs>
  <g id="Icons">
    <g>
      <path class="cls-1" d="M40.59,194.28h123.01c71.64-3.5,41.8-106.65-27.22-65.81,5.36-53.76-76.66-51.59-72.36-3.58C-1.17,93.63-21.52,194.28,40.59,194.28Z"/>
      <path class="cls-1" d="M72.62,141.26c-5.73-7.97-8.6-16.38-8.6-16.38"/>
      <path class="cls-1" d="M124.2,141.45c2.3-3.8,12.18-12.98,12.18-12.98"/>
      <path class="cls-1" d="M169.77,133.07c8.16,2.55,18.19,9.71,19.62,19.03"/>
      <path class="cls-1" d="M104.01,98.37c10.87,2.87,13.9,2.97,20.19,11.63"/>
      <path class="cls-1" d="M46.11,128.47c-12.9.71-25.43,6.49-32.24,23.63"/>
      <path class="cls-3" d="M104.01,41.1c-34.69,0-62.91,28.22-62.91,62.91,0,3.99.39,7.89,1.1,11.67,5.49.25,11.71,1.53,18.66,4.36.31-12.12,6.01-22.11,16.37-28.47,13.6-8.34,32.41-8.32,45.76.05,10.76,6.75,16.55,17.79,16.63,31.46,9.05-4.62,17.91-7.04,26.17-7.29.73-3.82,1.12-7.76,1.12-11.78,0-34.69-28.22-62.91-62.91-62.91Z"/>
      <path class="cls-3" d="M42.21,115.69c-.71-3.78-1.1-7.68-1.1-11.67,0-34.69,28.22-62.91,62.91-62.91s62.91,28.22,62.91,62.91c0,4.03-.4,7.96-1.12,11.78,2.06-.06,4.08.01,6.05.22.69-3.9,1.07-7.91,1.07-12.01,0-38-30.91-68.91-68.91-68.91s-68.91,30.91-68.91,68.91c0,4.04.37,7.98,1.04,11.83,1.92-.19,3.93-.26,6.07-.16Z"/>
      <path class="cls-3" d="M104.01,25.34c1.66,0,3-1.34,3-3V3c0-1.66-1.34-3-3-3s-3,1.34-3,3v19.34c0,1.66,1.34,3,3,3Z"/>
      <path class="cls-3" d="M44.14,48.39c.59.59,1.35.88,2.12.88s1.54-.29,2.12-.88c1.17-1.17,1.17-3.07,0-4.24l-13.68-13.68c-1.17-1.17-3.07-1.17-4.24,0s-1.17,3.07,0,4.24l13.68,13.68Z"/>
      <path class="cls-3" d="M3,107.02h19.34c1.66,0,3-1.34,3-3s-1.34-3-3-3H3c-1.66,0-3,1.34-3,3s1.34,3,3,3Z"/>
      <path class="cls-3" d="M185.69,107.02h19.34c1.66,0,3-1.34,3-3s-1.34-3-3-3h-19.34c-1.66,0-3,1.34-3,3s1.34,3,3,3Z"/>
      <path class="cls-3" d="M161.77,49.26c.77,0,1.54-.29,2.12-.88l13.68-13.68c1.17-1.17,1.17-3.07,0-4.24-1.17-1.17-3.07-1.17-4.24,0l-13.68,13.68c-1.17,1.17-1.17,3.07,0,4.24.59.59,1.35.88,2.12.88Z"/>
      <path class="cls-2" d="M176.46,139.39l7.86,7.62c-1.86-2.95-4.7-5.57-7.86-7.62Z"/>
    </g>
  </g>
</svg>