<?xml version="1.0" encoding="UTF-8"?>
<svg id="Layer_2" data-name="Layer 2" xmlns="http://www.w3.org/2000/svg" viewBox="0 0 207.67 204.26">
  <defs>
    <style>
      .cls-1 {
        fill: #e8dc00;
        stroke-linejoin: round;
      }

      .cls-1, .cls-2 {
        stroke: #e8dc00;
        stroke-width: 8px;
      }

      .cls-1, .cls-2, .cls-3 {
        stroke-linecap: round;
      }

      .cls-4, .cls-2 {
        fill: none;
      }

      .cls-4, .cls-5 {
        stroke-width: 0px;
      }

      .cls-2, .cls-3 {
        stroke-miterlimit: 10;
      }

      .cls-3 {
        fill: #dee8ff;
        stroke: #4a5366;
        stroke-width: 6px;
      }

      .cls-5 {
        fill: #5e8fff;
      }
    </style>
  </defs>
  <g id="Icons">
    <g>
      <g>
        <circle class="cls-1" cx="140.61" cy="66.86" r="41.01"/>
        <line class="cls-2" x1="140.61" y1="16.04" x2="140.61" y2="4"/>
        <line class="cls-2" x1="104.67" y1="30.92" x2="96.16" y2="22.41"/>
        <line class="cls-2" x1="89.79" y1="66.86" x2="77.75" y2="66.86"/>
        <line class="cls-2" x1="104.67" y1="102.79" x2="96.16" y2="111.3"/>
        <line class="cls-2" x1="140.61" y1="117.68" x2="140.61" y2="129.71"/>
        <line class="cls-2" x1="176.54" y1="102.79" x2="185.05" y2="111.3"/>
        <line class="cls-2" x1="191.43" y1="66.86" x2="203.46" y2="66.86"/>
        <line class="cls-2" x1="176.54" y1="30.92" x2="185.05" y2="22.41"/>
      </g>
      <g>
        <path class="cls-3" d="M40.41,159.67h123.01c71.64-3.5,41.8-106.65-27.22-65.81,5.36-53.76-76.66-51.59-72.36-3.58C-1.35,59.02-21.7,159.67,40.41,159.67Z"/>
        <path class="cls-3" d="M72.44,106.65c-5.73-7.97-8.6-16.38-8.6-16.38"/>
        <path class="cls-3" d="M124.02,106.84c2.3-3.8,12.18-12.98,12.18-12.98"/>
        <path class="cls-3" d="M169.59,98.47c8.16,2.55,18.19,9.71,19.62,19.03"/>
        <path class="cls-3" d="M103.84,63.76c10.87,2.87,13.9,2.97,20.19,11.63"/>
        <path class="cls-3" d="M45.93,93.86c-12.9.71-25.43,6.49-32.24,23.63"/>
      </g>
      <g>
        <path class="cls-4" d="M140.3,194.42c.29.89,1.17,3.59,6.84,3.82,5.15.22,6.05-1.81,6.34-2.47,1.81-4.13-1.92-13.06-6.66-18.93-4.47,4.8-8.06,12.85-6.52,17.58Z"/>
        <path class="cls-4" d="M99.63,194.42c.29.89,1.17,3.59,6.84,3.82,5.15.22,6.05-1.81,6.34-2.47,1.81-4.13-1.92-13.06-6.66-18.93-4.47,4.8-8.06,12.85-6.52,17.58Z"/>
        <path class="cls-4" d="M58.97,194.42c.29.89,1.17,3.59,6.84,3.82,5.16.21,6.05-1.81,6.34-2.47,1.81-4.13-1.92-13.06-6.66-18.93-4.47,4.8-8.05,12.85-6.52,17.58Z"/>
        <path class="cls-5" d="M65.91,168.55l-2.09,1.66c-7.14,5.66-13.18,18.01-10.56,26.06.92,2.82,3.73,7.6,12.3,7.96.33.01.66.02.97.02,6.95,0,9.88-3.27,11.11-6.08,3.56-8.12-3.43-21.32-9.84-27.74l-1.89-1.89Z"/>
        <path class="cls-5" d="M106.58,168.55l-2.09,1.66c-7.14,5.66-13.18,18.01-10.56,26.06.92,2.82,3.73,7.6,12.3,7.96.33.01.66.02.97.02,6.95,0,9.88-3.27,11.11-6.08,3.56-8.12-3.43-21.32-9.84-27.74l-1.89-1.89Z"/>
        <path class="cls-5" d="M149.14,170.44l-1.89-1.89-2.09,1.66c-7.14,5.66-13.18,18.01-10.56,26.06.92,2.82,3.73,7.61,12.3,7.96.33.01.66.02.97.02,6.95,0,9.88-3.27,11.11-6.08,3.56-8.12-3.43-21.32-9.84-27.74Z"/>
      </g>
    </g>
  </g>
</svg>