<?xml version="1.0" encoding="UTF-8"?>
<svg id="Layer_2" data-name="Layer 2" xmlns="http://www.w3.org/2000/svg" viewBox="0 0 207.67 190.07">
  <defs>
    <style>
      .cls-1 {
        fill: #dee8ff;
        stroke: #4a5366;
      }

      .cls-1, .cls-2 {
        stroke-linecap: round;
        stroke-miterlimit: 10;
        stroke-width: 6px;
      }

      .cls-2 {
        fill: none;
        stroke: #5e8fff;
      }
    </style>
  </defs>
  <g id="Icons">
    <g>
      <g>
        <path class="cls-1" d="M40.41,108.77h123.01c71.64-3.5,41.8-106.65-27.22-65.81,5.36-53.76-76.66-51.59-72.36-3.58C-1.35,8.11-21.7,108.77,40.41,108.77Z"/>
        <path class="cls-1" d="M72.44,55.75c-5.73-7.97-8.6-16.38-8.6-16.38"/>
        <path class="cls-1" d="M124.02,55.94c2.3-3.8,12.18-12.98,12.18-12.98"/>
        <path class="cls-1" d="M169.59,47.56c8.16,2.55,18.19,9.71,19.62,19.03"/>
        <path class="cls-1" d="M103.84,12.85c10.87,2.87,13.9,2.97,20.19,11.63"/>
        <path class="cls-1" d="M45.93,42.96c-12.9.71-25.43,6.49-32.24,23.63"/>
      </g>
      <g>
        <line class="cls-2" x1="145.47" y1="118.65" x2="145.47" y2="149.16"/>
        <line class="cls-2" x1="130.22" y1="133.55" x2="160.72" y2="133.55"/>
        <line class="cls-2" x1="135.91" y1="144.34" x2="157.48" y2="122.76"/>
        <line class="cls-2" x1="157.48" y1="144.34" x2="135.91" y2="122.76"/>
      </g>
      <g>
        <line class="cls-2" x1="100.91" y1="118.65" x2="100.91" y2="149.16"/>
        <line class="cls-2" x1="85.66" y1="133.55" x2="116.16" y2="133.55"/>
        <line class="cls-2" x1="91.35" y1="144.34" x2="112.92" y2="122.76"/>
        <line class="cls-2" x1="112.92" y1="144.34" x2="91.35" y2="122.76"/>
      </g>
      <g>
        <line class="cls-2" x1="123.19" y1="156.56" x2="123.19" y2="187.07"/>
        <line class="cls-2" x1="107.94" y1="171.46" x2="138.44" y2="171.46"/>
        <line class="cls-2" x1="113.63" y1="182.25" x2="135.2" y2="160.67"/>
        <line class="cls-2" x1="135.2" y1="182.25" x2="113.63" y2="160.67"/>
      </g>
      <g>
        <line class="cls-2" x1="78.63" y1="156.56" x2="78.63" y2="187.07"/>
        <line class="cls-2" x1="63.38" y1="171.46" x2="93.88" y2="171.46"/>
        <line class="cls-2" x1="69.07" y1="182.25" x2="90.64" y2="160.67"/>
        <line class="cls-2" x1="90.64" y1="182.25" x2="69.07" y2="160.67"/>
      </g>
      <g>
        <line class="cls-2" x1="56.35" y1="118.65" x2="56.35" y2="149.16"/>
        <line class="cls-2" x1="41.1" y1="133.55" x2="71.6" y2="133.55"/>
        <line class="cls-2" x1="46.79" y1="144.34" x2="68.36" y2="122.76"/>
        <line class="cls-2" x1="68.36" y1="144.34" x2="46.79" y2="122.76"/>
      </g>
    </g>
  </g>
</svg>