<?xml version="1.0" encoding="UTF-8"?>
<svg id="Layer_2" data-name="Layer 2" xmlns="http://www.w3.org/2000/svg" viewBox="0 0 352.28 215.79">
  <defs>
    <style>
      .cls-1 {
        stroke: #4a5366;
        stroke-width: 6px;
      }

      .cls-1, .cls-2 {
        stroke-miterlimit: 10;
      }

      .cls-1, .cls-2, .cls-3 {
        fill: none;
        stroke-linecap: round;
      }

      .cls-2, .cls-3 {
        stroke: #e8dc00;
        stroke-width: 8px;
      }

      .cls-4 {
        fill: #5e8fff;
        stroke-width: 0px;
      }

      .cls-3 {
        stroke-linejoin: round;
      }
    </style>
  </defs>
  <g id="Icons">
    <g>
      <g>
        <path class="cls-3" d="M122.6,50.89c6.23-14.72,20.8-25.05,37.79-25.05,22.65,0,41.01,18.36,41.01,41.01,0,7.17-1.84,13.91-5.07,19.77"/>
        <line class="cls-2" x1="160.39" y1="16.04" x2="160.39" y2="4"/>
        <line class="cls-2" x1="124.45" y1="30.92" x2="115.94" y2="22.41"/>
        <line class="cls-2" x1="211.21" y1="66.86" x2="223.25" y2="66.86"/>
        <line class="cls-2" x1="196.32" y1="30.92" x2="204.84" y2="22.41"/>
      </g>
      <g>
        <path class="cls-1" d="M204.08,135.52c5.08-28.16-23.18-62.09-67.88-35.65,5.36-53.76-76.66-51.59-72.36-3.58C-1.35,65.03-21.7,165.69,40.41,165.69h27.73"/>
        <path class="cls-1" d="M72.44,112.67c-5.73-7.97-8.6-16.38-8.6-16.38"/>
        <path class="cls-1" d="M124.02,112.86c2.3-3.8,12.18-12.98,12.18-12.98"/>
        <path class="cls-1" d="M169.59,104.48c8.16,2.55,18.19,9.71,19.62,19.03"/>
        <path class="cls-1" d="M103.84,69.77c10.87,2.87,13.9,2.97,20.19,11.63"/>
        <path class="cls-1" d="M45.93,99.87c-12.9.71-25.43,6.49-32.24,23.63"/>
      </g>
      <g>
        <path class="cls-4" d="M128.7,171.04c-.1-1.86-.17-3.85-.21-5.97-.05-2.12-.06-4.17-.04-6.15.02-1.98.08-3.8.18-5.47.09-1.67.26-3.03.5-4.07.33-1.52,1.15-2.62,2.47-3.29,1.31-.67,2.65-.89,4-.68,1.36.21,2.55.83,3.57,1.86,1.02,1.02,1.47,2.44,1.32,4.25-.1,1.29-.23,2.58-.39,3.9-.17,1.31-.35,2.61-.54,3.9-.33,2.53-.49,5.08-.46,7.65.02,2.57.06,5.16.11,7.76.05,2.6.06,5.18.04,7.76-.02,2.57-.23,5.12-.61,7.65-.24,1.53-.88,2.68-1.93,3.47-1.05.79-2.29,1.28-3.72,1.47-1.62.24-3.21.15-4.75-.25-1.55-.4-2.71-1.42-3.47-3.04-.86-1.86-1.7-3.79-2.54-5.79-.83-2-1.73-3.99-2.68-5.97-.95-1.98-1.98-3.9-3.07-5.75-1.1-1.86-2.31-3.55-3.65-5.08.24,1.43.46,3.1.68,5,.21,1.91.37,3.85.46,5.83.09,1.98.09,3.9,0,5.75-.1,1.86-.31,3.5-.64,4.93-.33,1.38-.92,2.46-1.75,3.22-.83.76-1.75,1.27-2.75,1.54-1,.26-2.05.3-3.15.11-1.1-.19-2.07-.55-2.93-1.07-.86-.52-1.55-1.18-2.07-1.96-.52-.79-.74-1.68-.64-2.68.14-1.43.32-2.93.54-4.5.21-1.57.42-3.16.61-4.75.19-1.6.36-3.18.5-4.75.14-1.57.21-3.07.21-4.5.05-3.33.05-6.61,0-9.83-.05-3.22-.19-6.49-.43-9.83-.1-1.43.12-2.68.64-3.75.52-1.07,1.48-1.89,2.86-2.47,2.05-.86,3.82-1.01,5.33-.46,1.5.55,2.81,1.48,3.93,2.79,1.12,1.31,2.07,2.84,2.86,4.57.79,1.74,1.51,3.35,2.18,4.83.29.71.67,1.62,1.14,2.72.48,1.1.99,2.31,1.54,3.65.55,1.33,1.12,2.69,1.72,4.07.6,1.38,1.18,2.72,1.75,4,.86,1.86,1.51,3.21,1.97,4.04.45.83.79,1.2,1,1.11.21-.09.33-.63.36-1.61.02-.98.01-2.35-.04-4.11Z"/>
        <path class="cls-4" d="M153.43,185.26c.05-5.15.05-10.15,0-15.01-.05-4.86.05-9.72.29-14.58l-.21-.5c-.81-.14-1.61-.12-2.39.07-.79.19-1.58.29-2.4.29-1.57-.05-2.75-.58-3.54-1.61-.79-1.02-1.19-2.17-1.22-3.43-.02-1.26.31-2.48,1-3.65.69-1.17,1.75-1.92,3.18-2.25.71-.14,1.75-.27,3.11-.39,1.36-.12,2.87-.19,4.54-.21,1.67-.02,3.41-.01,5.22.04,1.81.05,3.54.13,5.18.25,1.64.12,3.11.3,4.4.54,1.29.24,2.26.53,2.93.86.62.33,1.13.79,1.54,1.36.4.57.67,1.19.79,1.86.12.67.11,1.35-.04,2.04s-.45,1.3-.93,1.82c-.43.53-1.04.87-1.82,1.04-.79.17-1.61.28-2.47.32-.86.05-1.73.05-2.61,0-.88-.05-1.63-.02-2.25.07-.19.52-.38,1.55-.57,3.07-.19,1.53-.36,3.29-.5,5.29-.14,2-.29,4.16-.43,6.47-.14,2.31-.25,4.52-.32,6.61-.07,2.1-.12,3.99-.14,5.68-.02,1.69-.01,2.94.04,3.75.95.19,2.16.35,3.61.46,1.45.12,2.66.25,3.61.39,1.33.19,2.31.82,2.93,1.89.62,1.07.88,2.18.79,3.32-.1,1.14-.55,2.14-1.36,3-.81.86-1.98,1.19-3.5,1-5.43-.71-10.86-.71-16.3,0-.76.09-1.54.23-2.32.39-.79.17-1.58.2-2.39.11-1.05-.1-1.86-.36-2.43-.79-.57-.43-.91-1.19-1-2.29-.19-1.62-.18-2.95.04-4,.21-1.05.65-1.83,1.32-2.36.67-.52,1.55-.85,2.64-.96,1.1-.12,2.43-.11,4,.04Z"/>
        <path class="cls-4" d="M192.6,169.32c.24,3.72.47,7.24.71,10.58.24,3.34.19,6.65-.14,9.94-.19,1.57-.87,2.74-2.04,3.5-1.17.76-2.44,1.16-3.82,1.18-1.38.02-2.67-.29-3.86-.93-1.19-.64-1.88-1.61-2.07-2.89-.14-1.14-.21-2.44-.21-3.9s.04-2.97.11-4.54.17-3.11.29-4.61.23-2.85.32-4.04c.14-2.86.17-5.68.07-8.47-.1-2.79-.26-5.61-.5-8.47-.1-1.14-.14-2.26-.14-3.36s.15-2.1.46-3c.31-.9.82-1.68,1.54-2.32.71-.64,1.76-1.08,3.14-1.32,1.72-.24,3.23.11,4.54,1.04,1.31.93,2.51,2.14,3.61,3.65,1.1,1.5,2.11,3.12,3.04,4.86.93,1.74,1.86,3.3,2.79,4.68.93,1.38,1.89,2.43,2.9,3.15,1,.71,2.1.76,3.29.14,1.33-.67,2.73-1.86,4.18-3.57,1.45-1.72,2.87-3.59,4.25-5.61,1.38-2.03,2.69-4.03,3.93-6,1.24-1.98,2.34-3.61,3.29-4.9.95-1.24,2.19-2.06,3.72-2.47,1.53-.4,3-.3,4.43.32,1.95.81,2.96,2.24,3,4.29.1,1.91.01,3.87-.25,5.9-.26,2.03-.46,3.99-.61,5.9-.14,2.57-.19,5.22-.14,7.93.05,2.72.11,5.45.18,8.18.07,2.74.08,5.46.04,8.15-.05,2.69-.29,5.28-.71,7.75-.19,1.24-.66,2.25-1.39,3.04-.74.79-1.6,1.37-2.57,1.75-.98.38-2.02.55-3.11.5-1.1-.05-2.1-.3-3-.75-.9-.45-1.63-1.11-2.18-1.97-.55-.86-.78-1.91-.68-3.14.48-7.39.48-14.63,0-21.73-.48.05-.98.43-1.5,1.14-.53.71-1.13,1.56-1.82,2.54-.69.98-1.48,1.99-2.36,3.04-.88,1.05-1.87,1.94-2.97,2.68-1.1.74-2.35,1.22-3.75,1.43-1.41.21-2.97-.04-4.68-.75-.57-.24-1.13-.54-1.68-.89-.55-.36-1.18-.85-1.9-1.47-.71-.62-1.53-1.42-2.43-2.39-.9-.98-2-2.23-3.29-3.75Z"/>
        <path class="cls-4" d="M263.22,167.32c.43.24.86.44,1.29.61.43.17.83.37,1.22.61,1.95,1.33,3.12,2.98,3.5,4.93.38,1.95.23,4-.46,6.15s-1.83,4.26-3.43,6.36c-1.6,2.1-3.38,3.92-5.36,5.47s-4.06,2.71-6.25,3.47c-2.19.76-4.24.88-6.15.36-2.29-.62-4.21-1.76-5.75-3.43-1.55-1.67-2.39-3.72-2.54-6.15-.19-3.19-.32-6.4-.39-9.61-.07-3.22-.17-6.42-.29-9.61-.12-3.19-.28-6.39-.46-9.58-.19-3.19-.5-6.41-.93-9.65-.14-1.1-.07-2,.21-2.72.29-.71.9-1.4,1.86-2.07,1.72-1.1,3.2-1.72,4.47-1.86,1.26-.14,2.37.1,3.32.71.95.62,1.77,1.54,2.47,2.75.69,1.21,1.3,2.61,1.82,4.18,1.1-.71,2.07-1.42,2.93-2.11.86-.69,1.93-1.23,3.22-1.61,2.1-.67,3.87-.74,5.33-.21,1.45.52,2.61,1.41,3.47,2.64.86,1.24,1.41,2.72,1.64,4.43.24,1.72.19,3.46-.14,5.22-.38,2-1,3.85-1.86,5.54-.86,1.69-1.76,3.42-2.72,5.18ZM258.15,178.33c0-1.14-.36-1.77-1.07-1.89-.71-.12-1.51.11-2.39.68-.88.57-1.67,1.37-2.36,2.39-.69,1.03-.99,2.06-.89,3.11.1,1.33.5,2.03,1.22,2.07.71.05,1.48-.25,2.29-.89.81-.64,1.55-1.5,2.22-2.57.67-1.07,1-2.04,1-2.9ZM257.43,155.17c-1.19.24-2.19.79-3,1.64-.81.86-1.44,1.85-1.89,2.97-.45,1.12-.75,2.28-.89,3.47-.14,1.19-.13,2.22.04,3.07.17.86.5,1.45,1,1.79.5.33,1.16.21,1.97-.36.57-.43,1.2-1.24,1.89-2.43.69-1.19,1.24-2.47,1.64-3.82.4-1.36.59-2.65.57-3.86-.02-1.21-.46-2.04-1.32-2.47Z"/>
        <path class="cls-4" d="M300.46,189.34c-3.24,3.15-6.37,4.99-9.4,5.54-3.03.55-5.73.18-8.11-1.11-2.38-1.29-4.31-3.35-5.79-6.18-1.48-2.83-2.29-6.09-2.43-9.76-.1-1.72-.12-3.43-.07-5.15.05-1.72.07-3.33.07-4.86,0-1,.02-2.38.07-4.15.05-1.76.13-3.58.25-5.47.12-1.88.3-3.67.54-5.36.24-1.69.57-2.99,1-3.9.38-.86.92-1.58,1.61-2.18.69-.59,1.45-1.05,2.29-1.36.83-.31,1.7-.45,2.61-.43.91.02,1.79.23,2.64.61.91.38,1.56.92,1.97,1.61.4.69.66,1.51.75,2.47.14,2.24.08,4.63-.18,7.18-.26,2.55-.54,5.15-.82,7.79s-.48,5.24-.57,7.79c-.1,2.55.09,4.95.57,7.18.14.71.44,1.32.89,1.82.45.5.99.86,1.61,1.07.62.21,1.26.3,1.93.25.67-.05,1.31-.26,1.93-.64,1.33-.86,2.37-2.05,3.11-3.57.74-1.52,1.27-3.25,1.61-5.18s.55-3.99.64-6.18c.09-2.19.18-4.36.25-6.5.07-2.14.2-4.19.39-6.15.19-1.95.54-3.66,1.04-5.11.5-1.45,1.25-2.58,2.25-3.39s2.33-1.17,4-1.07c1.05.1,1.89.31,2.54.64.64.33,1.12.76,1.43,1.29.31.52.51,1.12.61,1.79.09.67.14,1.33.14,2s-.05,1.35-.14,2.04c-.1.69-.17,1.37-.21,2.04-.14,2.29-.24,4.73-.29,7.33-.05,2.6-.06,5.23-.04,7.9.02,2.67.11,5.3.25,7.9.14,2.6.36,5.04.64,7.33.14,1.24.26,2.37.36,3.4.1,1.03-.1,2.16-.57,3.4-.38,1.1-1.16,1.95-2.32,2.57-1.17.62-2.39.88-3.68.79-1.29-.1-2.45-.61-3.5-1.54-1.05-.93-1.67-2.42-1.86-4.47Z"/>
        <path class="cls-4" d="M320.48,191.27c-1.67-1.24-2.74-2.82-3.22-4.75-.48-1.93-.03-4.11,1.36-6.54.81-1.38,1.67-2.28,2.57-2.68.91-.4,1.85-.5,2.82-.29.98.21,1.98.64,3,1.29,1.02.64,2.02,1.3,3,1.96.98.67,1.95,1.25,2.93,1.75.98.5,1.89.73,2.75.68.52-.05,1.02-.19,1.5-.43.48-.24.76-.64.86-1.21.09-.52-.05-.98-.43-1.36-.38-.38-.76-.67-1.14-.86-2.43-.95-4.75-1.91-6.97-2.86s-4.42-2.1-6.61-3.43c-2-1.24-3.53-2.73-4.57-4.47-1.05-1.74-1.67-3.57-1.86-5.5-.19-1.93,0-3.87.57-5.83.57-1.95,1.45-3.75,2.64-5.4,1.19-1.64,2.67-3.07,4.43-4.29s3.72-2.06,5.86-2.54c3.29-.67,6.37-.58,9.26.25,2.88.83,5.59,2.32,8.11,4.47.86.71,1.48,1.6,1.86,2.65.38,1.05.56,2.12.54,3.22-.02,1.1-.27,2.16-.75,3.18-.48,1.03-1.14,1.89-2,2.61-1.48,1.14-2.78,1.63-3.9,1.47-1.12-.17-2.18-.6-3.18-1.29-1-.69-2-1.39-3-2.11-1-.71-2.12-1.05-3.36-1-2.14.14-3.5,1.22-4.07,3.22-.29.91-.23,1.72.18,2.43.4.71,1.04,1.37,1.89,1.97.86.6,1.86,1.13,3,1.61s2.31.95,3.5,1.43c1.19.48,2.35.95,3.47,1.43,1.12.48,2.06.98,2.82,1.5,1.33.95,2.37,2.1,3.11,3.43.74,1.33,1.19,2.75,1.36,4.25.17,1.5.09,3.03-.21,4.58-.31,1.55-.85,2.99-1.61,4.32-1.24,2.24-2.98,3.92-5.22,5.04-2.24,1.12-4.65,1.76-7.22,1.93-2.57.17-5.12-.1-7.65-.79-2.53-.69-4.67-1.7-6.43-3.04Z"/>
      </g>
    </g>
  </g>
</svg>